<?xml version="1.0" encoding="UTF-8"?>
<svg width="373px" height="48px" viewBox="0 0 373 48" version="1.1" xmlns="http://www.w3.org/2000/svg" xmlns:xlink="http://www.w3.org/1999/xlink">
    <title>Artboard</title>
    <g id="Artboard" stroke="none" stroke-width="1" fill="none" fill-rule="evenodd">
        <g id="Group" transform="translate(-0.500000, 0.000000)" fill-rule="nonzero">
            <g id="Color">
                <path d="M48.1558228,21.4976303 L48.1909119,21.4976303 C51.0274649,21.4805543 53.4055966,19.4564749 54.0666289,16.7254476 C54.1334113,16.4522311 53.9636256,16.1391704 53.6444285,16.3178996 C51.6975525,17.456302 49.6103203,17.7557018 48.1728014,17.7579786 C46.7352825,17.7602554 44.6480503,17.456302 42.7023062,16.3178996 C42.3831091,16.1391704 42.2133234,16.4522311 42.2789738,16.7254476 C42.9400062,19.4564749 45.3181378,21.4805543 48.1558228,21.4976303 Z" id="Path" fill="#F01446"></path>
                <path d="M48.1438446,33.8957346 L48.1973321,33.8957346 C52.1804503,33.8730488 55.5194413,31.0600053 56.4469389,27.2567252 C56.5402576,26.8756032 56.3012705,26.4400352 55.8540233,26.6895794 C53.1227422,28.2719163 50.1900293,28.6882014 48.1722954,28.6916042 C46.1545615,28.6950071 43.2229866,28.2719163 40.4917056,26.6895794 C40.0433203,26.4400352 39.8088853,26.8756032 39.8976519,27.2567252 C40.8217354,31.0600053 44.1607264,33.8730488 48.1438446,33.8957346 Z" id="Path" fill="#F01446"></path>
                <path d="M48.0593969,10.3507109 C50.8830641,10.3507109 53.1720987,8.05908782 53.1720987,5.23222749 C53.1720987,2.40536716 50.8830641,0.113744076 48.0593969,0.113744076 C45.3019464,0.113744076 42.9466951,2.40341232 42.9466951,5.23222749 C42.9466951,8.06104265 45.3019464,10.3507109 48.0593969,10.3507109 Z" id="Path" fill="#F01446"></path>
                <path d="M32.6254209,1.59241706 L25.0685761,1.59241706 C24.7646356,1.59241706 24.5182432,1.83918417 24.5182432,2.14358682 L24.5182432,18.1172609 C21.9871664,15.3477467 18.5907933,13.660074 14.7691629,13.660074 C6.61195492,13.660074 0,21.3468424 0,30.8294676 C0,40.3120928 6.61195492,48 14.7691629,48 C18.5907933,48 21.9871664,46.3123273 24.5182432,43.5428131 L24.5182432,46.635741 C24.5182432,46.9401436 24.7646356,47.1869107 25.0685761,47.1869107 L32.6254209,47.1869107 C32.9293614,47.1869107 33.1757539,46.9401436 33.1757539,46.635741 L33.1757539,2.14358682 C33.1757539,1.83918417 32.9293614,1.59241706 32.6254209,1.59241706 Z M24.5182432,30.900072 C24.4864057,36.3662184 20.9467642,40.7892419 16.5827602,40.7892419 C12.1994264,40.7892419 8.64159199,36.3286387 8.64159199,30.8226349 C8.64159199,25.3166312 12.1948782,20.8594443 16.578212,20.8594443 C20.942216,20.8594443 24.4818575,25.2801902 24.513695,30.7486142 L24.5182432,30.900072 Z" id="Shape" fill="#F01446"></path>
                <path d="M113.361839,13.7459079 C109.379389,13.7459079 106.313697,15.4220406 104.303184,18.157262 L104.303184,2.25615995 C104.303184,1.95240399 104.057323,1.70616114 103.754037,1.70616114 L96.2134783,1.70616114 C95.9101929,1.70616114 95.6643314,1.95240399 95.6643314,2.25615995 L95.6643314,46.6537915 C95.6643314,46.9575474 95.9101929,47.2037915 96.2134783,47.2037915 L103.754037,47.2037915 C104.057323,47.2037915 104.303184,46.9575474 104.303184,46.6537915 L104.303184,27.6674688 C104.303184,23.3697508 107.373415,20.9743014 111.075618,20.9743014 C114.777821,20.9743014 117.692612,23.2561147 117.692612,28.8572389 L117.699419,46.6537915 C117.699419,46.9575474 117.945281,47.2037915 118.248566,47.2037915 L125.791394,47.2037915 C125.937129,47.2037915 126.076983,47.1462438 126.180033,47.0430334 C126.283084,46.9398229 126.340542,46.7997528 126.340542,46.6537915 L126.340542,28.328831 C126.338272,18.2606709 120.565421,13.7459079 113.361839,13.7459079 Z" id="Path" fill="#F01446"></path>
                <path d="M57.8502103,38.8797178 C54.3878858,40.8823944 50.6773579,41.4105479 48.1167634,41.4139481 C45.556169,41.4173482 41.845641,40.8823944 38.3844551,38.8797178 C37.8151811,38.5635057 37.5146044,39.1165935 37.6318749,39.5971452 C38.8068564,44.4060625 43.0377008,47.9705322 48.0860226,48 L48.1452271,48 C53.193549,47.9705322 57.4243934,44.4060625 58.5993749,39.5971452 C58.720061,39.1165935 58.4172072,38.5635057 57.8502103,38.8797178 Z" id="Path" fill="#F01446"></path>
                <path d="M71.6619911,23.427651 C71.6619911,21.9809455 73.6905518,20.929521 76.8027552,20.929521 C80.3515995,20.929521 83.6855346,22.1905469 85.7607159,23.9653242 C85.9441746,24.121478 86.1874845,24.1877422 86.4246092,24.1461319 C86.661734,24.1045216 86.8680756,23.9593534 86.9876313,23.7500271 L89.5210581,18.7047842 C89.715789,18.3643155 89.6265197,17.9318241 89.3129715,17.6966469 C86.1825747,15.3397701 81.9719466,13.6492891 76.7345301,13.6492891 C68.1449852,13.6492891 63.3476209,18.4598695 63.3476209,23.9482371 C63.3476209,36.7624022 82.7588098,32.3277373 82.7588098,37.9596363 C82.7588098,39.5008903 80.9997383,40.8074817 77.2803312,40.8074817 C73.5848029,40.8074817 69.2149828,39.3459675 66.6770076,37.3262755 C66.4948699,37.1816152 66.259516,37.1222268 66.0307073,37.1631904 C65.8018985,37.204154 65.6016444,37.3415292 65.4807935,37.5404335 L62.6039668,42.3612662 C62.4026621,42.6877995 62.4703804,43.1127724 62.7631588,43.3602903 C66.2278588,46.2776231 71.4573156,48 76.8698433,48 C85.9335529,48 91.006092,43.5277436 91.006092,37.4971463 C91.006092,24.5861545 71.6619911,28.5754163 71.6619911,23.427651 Z" id="Path" fill="#F01446"></path>
                <path d="M48.1558228,21.4976303 L48.1909119,21.4976303 C51.0274649,21.4805543 53.4055966,19.4564749 54.0666289,16.7254476 C54.1334113,16.4522311 53.9636256,16.1391704 53.6444285,16.3178996 C51.6975525,17.456302 49.6103203,17.7557018 48.1728014,17.7579786 C46.7352825,17.7602554 44.6480503,17.4551636 42.7023062,16.3178996 C42.3831091,16.1391704 42.2133234,16.4522311 42.2789738,16.7254476 C42.9400062,19.4564749 45.3181378,21.4805543 48.1558228,21.4976303 Z" id="Path" fill="#F01446"></path>
                <path d="M48.1438446,33.8957346 L48.1973321,33.8957346 C52.1804503,33.8730488 55.5194413,31.0600053 56.4469389,27.2567252 C56.5402576,26.8756032 56.3012705,26.4400352 55.8540233,26.6895794 C53.1227422,28.2775878 50.1900293,28.6882014 48.1722954,28.6916042 C46.1545615,28.6950071 43.2229866,28.2719163 40.4917056,26.6895794 C40.0433203,26.4400352 39.8088853,26.8756032 39.8976519,27.2567252 C40.8217354,31.0600053 44.1607264,33.8719145 48.1438446,33.8957346 Z" id="Path" fill="#F01446"></path>
                <path d="M48.0593969,10.3507109 C50.8830641,10.3507109 53.1720987,8.05908782 53.1720987,5.23222749 C53.1720987,2.40536716 50.8830641,0.113744076 48.0593969,0.113744076 C45.3019464,0.113744076 42.9466951,2.40341232 42.9466951,5.23222749 C42.9466951,8.06104265 45.3019464,10.3507109 48.0593969,10.3507109 Z" id="Path" fill="#F01446"></path>
                <path d="M32.6254198,1.59241706 L25.0685752,1.59241706 C24.7646348,1.59241706 24.5182423,1.83917811 24.5182423,2.1435733 L24.5182423,18.1179942 C21.9871656,15.3485479 18.5907926,13.6631942 14.7691624,13.6631942 C6.61195469,13.6631942 0,21.3474964 0,30.829889 C0,40.3122815 6.61195469,48 14.7691624,48 C18.5907926,48 21.9871656,46.3123687 24.5182423,43.5429225 L24.5182423,46.6357744 C24.5182423,46.9401696 24.7646348,47.1869307 25.0685752,47.1869307 L32.6254198,47.1869307 C32.9293603,47.1869307 33.1757539,46.9401696 33.1757539,46.6357744 L33.1757539,2.14471205 C33.1757539,1.99853623 33.1183626,1.85822733 33.0153683,1.75465186 C32.912374,1.65107639 32.7725143,1.59241706 32.6265568,1.59241706 L32.6254198,1.59241706 Z M24.5182423,30.8993529 C24.4864049,36.3653651 20.9467634,40.7882803 16.5827596,40.7882803 C12.1994259,40.7894188 8.64159168,36.32437 8.64159168,30.8241952 C8.64159168,25.3240203 12.1948777,20.8612491 16.5782114,20.8612491 C20.9422152,20.8612491 24.4818567,25.2818865 24.5136941,30.7501763 L24.5182423,30.8993529 Z" id="Shape" fill="#F01446"></path>
                <path d="M113.36184,13.6400511 C109.37939,13.6400511 106.313698,15.3160164 104.303184,18.0509645 L104.303184,2.14349718 C104.303486,1.9976429 104.245918,1.85764264 104.143146,1.754295 C104.040373,1.65094736 103.900815,1.59241706 103.755172,1.59241706 L96.2134784,1.59241706 C95.9101929,1.59241706 95.6643314,1.83863532 95.6643314,2.14236093 L95.6643314,2.14236093 L95.6643314,46.5355574 C95.6643314,46.839283 95.9101929,47.0855012 96.2134784,47.0855012 L103.754037,47.0855012 C104.057323,47.0855012 104.303184,46.839283 104.303184,46.5355574 L104.303184,46.5355574 L104.303184,27.5556763 C104.303184,23.2583876 107.373415,20.8631775 111.075619,20.8631775 C114.777822,20.8631775 117.692612,23.1447628 117.692612,28.7453276 L117.69942,46.5401023 C117.69942,46.843828 117.945281,47.0900474 118.248567,47.0900474 L125.791395,47.0900474 C125.936737,47.0900474 126.076246,47.0328163 126.179231,46.930108 C126.282216,46.8273996 126.340542,46.6879278 126.340542,46.5423748 L126.340542,28.2169724 C126.338273,18.1509543 120.565422,13.6400511 113.36184,13.6400511 Z" id="Path" fill="#F01446"></path>
                <path d="M57.8502103,38.879802 C54.3878858,40.8834561 50.6773579,41.4118674 48.1167634,41.4152692 C45.556169,41.418671 41.845641,40.8834561 38.3844551,38.879802 C37.8151811,38.5634356 37.5146044,39.1167934 37.6318749,39.5975796 C38.8091335,44.4054423 43.0377008,47.9750535 48.0860226,48 L48.1452271,48 C53.193549,47.9705178 57.4243934,44.4043084 58.5993749,39.5930439 C58.720061,39.1167934 58.4172072,38.5634356 57.8502103,38.879802 Z" id="Path" fill="#F01446"></path>
                <path d="M71.6620698,23.4243911 C71.6620698,21.9774937 73.6906223,20.9259297 76.8028131,20.9259297 C80.3516429,20.9259297 83.6855644,22.1871229 85.7607373,23.9621356 C86.1010004,24.24932 86.6087934,24.2076001 86.8978183,23.8687139 C86.9298107,23.830704 86.9583511,23.7899073 86.9830994,23.7468099 L89.5165159,18.7008977 C89.7112459,18.3603839 89.621977,17.9278351 89.30843,17.6926267 C86.178046,15.3354372 81.967435,13.6492891 76.7300399,13.6492891 C68.1450782,13.6492891 63.3477334,18.4559505 63.3477334,23.9450463 C63.3477334,36.7609113 82.7588434,32.3256582 82.7588434,37.9583043 C82.7588434,39.4997627 80.9997791,40.8065275 77.2803871,40.8065275 C73.5848738,40.8065275 69.2150715,39.3448194 66.6771066,37.3248595 C66.3252808,37.048543 65.8166148,37.1097015 65.5400256,37.4615742 C65.5205529,37.4858112 65.5026997,37.5113109 65.4865828,37.5379066 L62.6040824,42.3593788 C62.4026207,42.6863076 62.4703249,43.1117345 62.7632738,43.3596748 C66.2279596,46.2773946 71.4573952,48 76.8699008,48 C85.9335736,48 91.006092,43.5271503 91.006092,37.4957529 C91.006092,24.5864661 71.6620698,28.5739786 71.6620698,23.4243911 Z" id="Path" fill="#F01446"></path>
                <polygon id="Path" fill="#000010" points="168.808901 25.0437584 161.951806 47.1981039 152.808633 47.1981039 142.928419 14.6729858 151.803577 14.6729858 157.849813 36.5645641 164.982874 14.6729858 172.579282 14.6729858 179.69985 36.5645641 185.750629 14.6786734 194.623515 14.6786734 184.743301 47.2037915 175.667132 47.2037915"></polygon>
                <path d="M195.986902,5.35056124 C195.986902,2.52034797 198.341017,0.227488152 201.099604,0.227488152 C203.923271,0.227488152 206.212306,2.52116613 206.212306,5.35056124 C206.212306,8.17995635 203.923271,10.4736343 201.099604,10.4736343 C198.341017,10.4736343 195.986902,8.18191297 195.986902,5.35056124 Z M196.861742,14.6517851 L205.403363,14.6517851 L205.403363,47.2037915 L196.861742,47.2037915 L196.861742,14.6517851 Z" id="Shape" fill="#000010"></path>
                <path d="M209.279927,14.6161371 L217.803576,14.6161371 L217.803576,19.0534318 C220.085846,16.1630005 224.112981,13.8767773 228.140116,13.8767773 L228.140116,22.2141667 C227.366272,22.0646831 226.57891,21.9969258 225.790954,22.0120068 C222.971279,22.0120068 219.215114,23.5588703 217.803576,25.6463409 L217.803576,47.0900474 L209.279927,47.0900474 L209.279927,14.6161371 Z" id="Path" fill="#000010"></path>
                <path d="M246.303601,13.8767773 C255.980684,13.8767773 262.565641,21.1450442 262.565641,31.7797022 L262.565641,33.6635624 L238.440474,33.6635624 C238.978531,37.7689451 242.271577,41.2024139 247.781555,41.2024139 C250.805573,41.2024139 254.365377,39.9904676 256.450633,37.9713151 L260.213627,43.4898772 C256.921716,46.518606 251.880552,48 246.840523,48 C236.96479,48 229.503503,41.3365693 229.503503,30.9042813 C229.503503,21.4815696 236.425597,13.8767773 246.303601,13.8767773 Z M238.306527,27.8755525 L254.300674,27.8755525 C254.098619,24.7797461 251.94866,20.6743633 246.303601,20.6743633 C240.994543,20.6743633 238.709502,24.6444538 238.306527,27.8755525 L238.306527,27.8755525 Z" id="Shape" fill="#000010"></path>
                <polygon id="Path" fill="#000010" points="266.769418 2.27488152 275.290588 2.27488152 275.290588 47.2037915 266.769418 47.2037915"></polygon>
                <path d="M296.634733,13.8767773 C306.311484,13.8767773 312.89735,21.1450442 312.89735,31.7797022 L312.89735,33.6635624 L288.773011,33.6635624 C289.31105,37.7689451 292.603983,41.2024139 298.113772,41.2024139 C301.137685,41.2024139 304.697368,39.9904676 306.782551,37.9713151 L310.544282,43.4898772 C307.252484,46.518606 302.211493,48 297.171636,48 C287.296242,48 279.835212,41.3365693 279.835212,30.9042813 C279.836347,21.4815696 286.757068,13.8767773 296.634733,13.8767773 Z M288.636799,27.8755525 L304.629261,27.8755525 C304.428348,24.7797461 302.277328,20.6743633 296.632462,20.6743633 C291.326992,20.6743633 289.04203,24.6444538 288.636799,27.8755525 Z" id="Shape" fill="#000010"></path>
                <path d="M317.96139,36.9628758 C320.319248,39.1843983 325.169243,41.4047839 329.211285,41.4047839 C332.91649,41.4047839 334.673504,40.12576 334.673504,38.1077443 C334.673504,35.820281 331.84453,35.0119379 328.139325,34.2718093 C322.547378,33.1951554 315.339525,31.8490537 315.339525,24.1089691 C315.339525,18.6518001 320.118967,13.8767773 328.677581,13.8767773 C334.202387,13.8767773 338.577852,15.7606375 341.747077,18.3186854 L338.378709,24.1737729 C336.424828,22.0875427 332.719623,20.4049156 328.745859,20.4049156 C325.646049,20.4049156 323.625028,21.5486473 323.625028,23.4336444 C323.625028,25.4527969 326.184306,26.1929254 329.822371,26.933054 C335.413179,28.0097079 342.891867,29.4911019 342.891867,37.567712 C342.891867,43.5580918 337.839315,48 328.81186,48 C323.152774,48 317.696245,46.1150029 314.260737,42.9521187 L317.96139,36.9628758 Z" id="Path" fill="#000010"></path>
                <path d="M348.075213,36.963645 C350.433071,39.1852415 355.283066,41.4057011 359.325108,41.4057011 C363.030313,41.4057011 364.781637,40.1266345 364.781637,38.1085517 C364.781637,35.8210122 361.952663,35.0126421 358.247457,34.2724889 C352.655511,33.195799 345.447658,31.8496525 345.447658,24.10931 C345.447658,18.6519592 350.2271,13.8767773 358.785714,13.8767773 C364.31052,13.8767773 368.685985,15.7607002 371.85521,18.3188334 L368.486842,24.1729791 C366.532961,22.0866793 362.827755,20.4039962 358.853991,20.4039962 C355.754182,20.4039962 353.733161,21.547766 353.733161,23.4328259 C353.733161,25.4520457 356.292438,26.1921989 359.930504,26.9323521 C365.521312,28.0090419 373,29.4904852 373,37.5673644 C373,43.5579438 367.947448,48 358.919993,48 C353.260907,48 347.804378,46.1149401 344.36887,42.9519505 L348.075213,36.963645 Z" id="Path" fill="#000010"></path>
                <path d="M377.544624,47.2037915 L377.129927,47.2037915 L377.052668,46.0002262 C377.044715,45.8425636 377.044715,45.6460404 377.036762,45.4284216 L377.014039,45.4284216 C376.96064,45.6094005 376.900423,45.8492254 376.836799,46.0379764 L376.459595,47.1727031 L376.028992,47.1727031 L375.651788,46.0079983 C375.613159,45.8492254 375.551806,45.6094005 375.505224,45.4284216 L375.482501,45.4284216 C375.482501,45.6160623 375.474548,45.8114752 375.467731,46.0002262 L375.390472,47.2037915 L374.990545,47.2037915 L375.143926,45.1575084 L375.767676,45.1575084 L376.128973,46.1567785 C376.175556,46.3144411 376.214185,46.4654419 376.267585,46.6752886 L376.275538,46.6752886 C376.328937,46.4876479 376.375519,46.3144411 376.420966,46.1645506 L376.783399,45.1563981 L377.38329,45.1563981 L377.544624,47.2037915 Z M373.113616,45.4961499 L373.782811,45.4961499 L373.782811,47.2037915 L374.198645,47.2037915 L374.198645,45.4961499 L374.86784,45.4961499 L374.86784,45.1575084 L373.113616,45.1575084 L373.113616,45.4961499 Z" id="Shape" fill="#000010"></path>
            </g>
        </g>
    </g>
</svg>